With: Chia Hui Liu, Joe Lewis and Ammara Siripong

Een aantal internationale huurmoordenaars is gevangen genomen en opgesloten in een hightech bunker die bekend staat als de "Moordkamer". Om vrij te komen uit deze betonnen hel moeten ze met elkaar duelleren, het opnemen tegen dodelijke ninja's en de strijd aangaan met bendes van gemaskerde maniakken. Wanneer ze dit alles overleven moeten ze het opnemen tegen Snakehead, een gestoorde moordenaar die zich door niemand laat tegenhouden om ze allemaal te vermoorden.

Captured international assassins are locked up inside a high-tech bunker known as the Killing Chamber...
 
http://www.imdb.com/title/tt1928335	

------------------------ Dutch Friends ------------------------
---------------------------------------------------------------
- Bezoek ook eens mijn vrienden op:  http://www.Film-Test.nl --
----- voor mijn Nederlandse Sync. ondertitels ---- en meer ----
------- http://www.Film-Test.nl ---- Over Films en meer -------
---------------------------------------------------------------

General:

Complete name                    : Kill Them AllKill Them All.avi
Format                           : AVI
Format/Info                      : Audio Video Interleave
File size                        : 1.22 GiB
Duration                         : 1h 26mn
Overall bit rate                 : 2 024 Kbps

Video:

Format                           : MPEG-4 Visual
Format profile                   : Simple@L3
Format settings, BVOP            : No
Format settings, QPel            : No
Format settings, GMC             : No warppoints
Format settings, Matrix          : Default (H.263)
Codec ID                         : XVID
Codec ID/Hint                    : XviD
Duration                         : 1h 26mn
Bit rate                         : 1 629 Kbps
Width                            : 704 pixels
Height                           : 396 pixels
Display aspect ratio             : 16:9
Frame rate                       : 23.976 fps
Color space                      : YUV
Chroma subsampling               : 4:2:0
Bit depth                        : 8 bits
Scan type                        : Progressive
Compression mode                 : Lossy
Bits/(Pixel*Frame)               : 0.244
Stream size                      : 1 005 MiB (80%)
Writing library                  : XviD 1.1.2 (UTC 2006-11-01)

Audio:

Format                           : AC-3
Format/Info                      : Audio Coding 3
Mode extension                   : CM (complete main)
Codec ID                         : 2000
Duration                         : 1h 26mn
Bit rate mode                    : Constant
Bit rate                         : 384 Kbps
Channel(s)                       : 6 channels
Channel positions                : Front: L C R, Side: L R, LFE
Sampling rate                    : 48.0 KHz
Bit depth                        : 16 bits
Compression mode                 : Lossy
Stream size                      : 237 MiB (19%)
Alignment                        : Aligned on interleaves
Interleave, duration             : 32 ms (0.77 video frame)